<svg xmlns="http://www.w3.org/2000/svg" version="1.1" xmlns:xlink="http://www.w3.org/1999/xlink" xmlns:svgjs="http://svgjs.dev/svgjs" width="100%" height="100%" viewBox="0 0 1000 600"><rect width="1000" height="600" x="0" y="0" fill="#8bd8bd"/><g><circle r="166.66666666666666" cx="382.0217081705729" cy="404.2439379826983" fill="#243665" transform="matrix(0.5804367314043196,0,0,0.5804367314043197,0,65.36195468852304)"/><path d="M337.430681281578 479.24392618604253L337.430681281578 329.24392483915057L426.6127142518467 329.24392483915057L426.6127142518467 346.4271340950519L357.55622088951725 346.4271340950519L357.55622088951725 391.9744079445985L418.9920786400685 391.9744079445985L418.9920786400685 409.3341570216221L357.55622088951725 409.3341570216221L357.55622088951725 479.24392618604253L337.430681281578 479.24392618604253Z " fill="#8bd8bd" transform="matrix(0.5804367314043196,0,0,0.5804367314043197,0,65.36195468852304)"/><path d="M637.6176398725713 452.584272490027Q639.2533772556089 453.21560972558535 646.0832982584677 456.08532443266887Q652.9132192613265 458.9837362868232 660.4318717938854 460.73426225814416Q667.979221473515 462.513485376536 675.4117825648614 462.513485376536L675.4117825648614 462.513485376536Q689.2725046000749 462.513485376536 697.3364029269796 455.7983529619605Q705.3716041068135 449.08322054738505 705.3716041068135 437.28869310127175L705.3716041068135 437.28869310127175Q705.3716041068135 429.22479477436707 701.3540035168966 424.2888854781834Q697.3364029269796 419.3242790349289 691.1378191596791 416.62674721027037Q684.9392353923788 413.95791253268266 674.608262446878 410.8586206490325L674.608262446878 410.8586206490325Q661.5797576767188 406.92711150032807 653.8315279675933 403.19648238111944Q646.0832982584677 399.4945504089817 640.6021431679383 391.6315321115728Q635.1209880774087 383.76851381416395 635.1209880774087 370.5678261615797L635.1209880774087 370.5678261615797Q635.1209880774087 352.1729548891743 647.632944200293 340.80888464912357Q660.1449003231771 329.44481440907276 684.9392353923788 329.44481440907276L684.9392353923788 329.44481440907276Q701.8705521641716 329.44481440907276 721.0976407016312 337.5087127359775L721.0976407016312 337.5087127359775L716.3339142878725 353.4069322132203Q698.7712602805213 346.17525115136976 685.5418754808663 346.17525115136976L685.5418754808663 346.17525115136976Q671.2793933866611 346.17525115136976 663.4450722363231 352.05816630089095Q655.5820539389142 357.94108145041224 655.7829339684101 368.0711743664171L655.7829339684101 368.0711743664171Q655.7829339684101 375.9341926638259 659.8292317053979 380.66922193051374Q663.8468322953148 385.4329483442724 669.729747444836 388.13048016893094Q675.6413597414281 390.7993148465186 685.5418754808663 393.8986067301688L685.5418754808663 393.8986067301688Q698.7712602805213 398.0309959083691 706.6342785779302 402.1633850865694Q714.4685997282683 406.29577426476965 720.1506348482936 414.67534120945356Q725.832669968319 423.02621100706665 725.832669968319 437.28869310127175L725.832669968319 437.28869310127175Q725.832669968319 457.5488789332815 712.3163136979556 468.3964005260572Q698.7712602805213 479.2439221188329 676.2439998299157 479.2439221188329L676.2439998299157 479.2439221188329Q663.2441922068273 479.2439221188329 653.4297679086017 476.4602988529619Q643.6153436103759 473.64797844002004 632.0216961937585 468.91294917333227L632.0216961937585 468.91294917333227L637.6176398725713 452.584272490027ZM760.1257607179672 383.99809099073065L741.5300094160659 383.99809099073065L741.5300094160659 369.10427166096713L761.7901952480756 369.10427166096713L765.0903671612217 338.11135282446503L779.5537292849226 338.11135282446503L779.5537292849226 369.10427166096713L812.0102026220374 369.10427166096713L812.0102026220374 383.99809099073065L779.5537292849226 383.99809099073065L779.5537292849226 442.65505960351794Q779.5537292849226 461.0499308759234 795.0501887031737 461.0499308759234L795.0501887031737 461.0499308759234Q801.2487724704741 461.0499308759234 810.3457680919289 458.151519021769L810.3457680919289 458.151519021769L813.645940005075 471.8113610274866Q802.2818697650242 476.5463902941744 791.5491367605318 476.5463902941744L791.5491367605318 476.5463902941744Q777.6884147253184 476.5463902941744 768.9070877216428 468.2816119377739Q760.1257607179672 460.0168335813733 760.1257607179672 443.68815689806803L760.1257607179672 443.68815689806803L760.1257607179672 383.99809099073065ZM827.9084220992802 446.5865687522224Q827.9084220992802 429.65525198042957 841.5395669579269 420.35737632947894Q855.1707118165737 411.0595006785283 880.194624062342 411.0595006785283L880.194624062342 411.0595006785283L895.891963510089 411.0595006785283L895.891963510089 406.92711150032807Q895.891963510089 393.69772670067294 890.4108084195593 388.13048016893094Q884.9296533290299 382.53453649011806 871.7002685293749 382.53453649011806L871.7002685293749 382.53453649011806Q863.2346101434783 382.53453649011806 856.6342663171863 384.08418243194313Q850.0052253438233 385.63382837376827 839.6742523983226 390.19667475803107L839.6742523983226 390.19667475803107L833.9061258370847 376.76640992888014Q853.3340944040401 367.23895710136287 872.1307257354373 367.23895710136287L872.1307257354373 367.23895710136287Q894.657986186043 367.23895710136287 904.9889591315437 376.8525013700926Q915.3199320770443 386.4660456388225 915.3199320770443 407.32887155931974L915.3199320770443 407.32887155931974L915.3199320770443 475.3124129701285L900.225232717785 475.3124129701285Q900.0243526882891 474.4801957050743 899.3930154527309 471.29481238021157Q898.7903753642433 468.080731908278 897.5277008931265 462.91524543552765L897.5277008931265 462.91524543552765Q882.6625787104338 477.78036761822034 862.8328500844866 477.78036761822034L862.8328500844866 477.78036761822034Q846.9059334601731 477.78036761822034 837.4071777797267 469.31470923232393Q827.9084220992802 460.84905084642753 827.9084220992802 446.5865687522224L827.9084220992802 446.5865687522224ZM847.3363906662356 446.1848086932307Q847.3363906662356 454.01912984356875 852.3009971094901 458.26630761005237Q857.2369064056738 462.513485376536 866.5347820566244 462.513485376536L866.5347820566244 462.513485376536Q874.799560413025 462.513485376536 882.6625787104338 458.66806766904404Q890.5255970078426 454.851347108623 895.891963510089 448.2510032823308L895.891963510089 448.2510032823308L895.891963510089 425.5228628022293L881.428601386388 425.5228628022293Q864.4685874675242 425.5228628022293 855.9168376404155 430.68834927497966Q847.3363906662356 435.85383574773 847.3363906662356 446.1848086932307L847.3363906662356 446.1848086932307ZM948.7808055616383 369.10427166096713L964.4781450093852 369.10427166096713L966.7452196279812 383.76851381416395Q977.908409838536 367.23895710136287 996.1024010814457 367.23895710136287L996.1024010814457 367.23895710136287Q1001.8705276426836 367.23895710136287 1009.7335459400924 369.305151690463L1009.7335459400924 369.305151690463L1006.6342540564422 386.66692566831836Q997.7381384644833 384.6007310792182 992.8022291682996 384.6007310792182L992.8022291682996 384.6007310792182Q984.1069936058366 384.6007310792182 978.4249584858112 388.01569158064757Q972.7429233657858 391.43065208207696 968.2087741285939 399.4945504089817L968.2087741285939 399.4945504089817L968.2087741285939 475.3124129701285L948.7808055616383 475.3124129701285L948.7808055616383 369.10427166096713ZM1023.1638107692434 417.65984450482046L1023.1638107692434 401.1302877920193L1098.98167333039 401.1302877920193L1098.98167333039 417.65984450482046L1023.1638107692434 417.65984450482046ZM1256.4429193080634 457.5488789332815L1290.9368900872073 329.24393437957696L1310.7666187131545 329.24393437957696L1271.7384986968186 475.3124129701285L1241.7786771548667 475.3124129701285L1209.9535410533103 353.4069322132203L1177.927524922258 475.3124129701285L1147.967703380306 475.3124129701285L1108.9108862168991 329.24393437957696L1128.9414948723422 329.24393437957696L1163.2632827690613 457.11842172721896L1196.925036283151 329.24393437957696L1222.7524686469028 329.24393437957696L1256.4429193080634 457.5488789332815ZM1325.660438042918 446.5865687522224Q1325.660438042918 429.65525198042957 1339.2915829015649 420.35737632947894Q1352.9227277602117 411.0595006785283 1377.917942858909 411.0595006785283L1377.917942858909 411.0595006785283L1393.6439794537268 411.0595006785283L1393.6439794537268 406.92711150032807Q1393.6439794537268 393.69772670067294 1388.1628243631974 388.13048016893094Q1382.6816692726677 382.53453649011806 1369.4522844730127 382.53453649011806L1369.4522844730127 382.53453649011806Q1360.9866260871163 382.53453649011806 1354.3862822608241 384.08418243194313Q1347.757241287461 385.63382837376827 1337.4262683419606 390.19667475803107L1337.4262683419606 390.19667475803107L1331.6581417807226 376.76640992888014Q1351.0574132006072 367.23895710136287 1369.8827416790753 367.23895710136287L1369.8827416790753 367.23895710136287Q1392.38130498261 367.23895710136287 1402.7122779281108 376.8525013700926Q1413.0432508736117 386.4660456388225 1413.0432508736117 407.32887155931974L1413.0432508736117 407.32887155931974L1413.0432508736117 475.3124129701285L1397.977248661423 475.3124129701285Q1397.7763686319272 474.4801957050743 1397.1450313963687 471.29481238021157Q1396.5136941608102 468.080731908278 1395.2797168367645 462.91524543552765L1395.2797168367645 462.91524543552765Q1380.4145946540718 477.78036761822034 1360.5848660281245 477.78036761822034L1360.5848660281245 477.78036761822034Q1344.657949403811 477.78036761822034 1335.1591937233645 469.31470923232393Q1325.660438042918 460.84905084642753 1325.660438042918 446.5865687522224L1325.660438042918 446.5865687522224ZM1345.0884066098738 446.1848086932307Q1345.0884066098738 454.01912984356875 1350.0243159060574 458.26630761005237Q1354.988922349312 462.513485376536 1364.2867980002625 462.513485376536L1364.2867980002625 462.513485376536Q1372.551576356663 462.513485376536 1380.4145946540718 458.66806766904404Q1388.2489158044098 454.851347108623 1393.6439794537268 448.2510032823308L1393.6439794537268 448.2510032823308L1393.6439794537268 425.5228628022293L1379.180617330026 425.5228628022293Q1362.2206034111623 425.5228628022293 1353.6401564369826 430.68834927497966Q1345.0884066098738 435.85383574773 1345.0884066098738 446.1848086932307L1345.0884066098738 446.1848086932307ZM1446.5328215052764 369.10427166096713L1462.2301609530232 369.10427166096713L1464.4972355716193 383.76851381416395Q1475.6604257821741 367.23895710136287 1493.8544170250836 367.23895710136287L1493.8544170250836 367.23895710136287Q1499.6225435863216 367.23895710136287 1507.4855618837305 369.305151690463L1507.4855618837305 369.305151690463L1504.3862700000805 386.66692566831836Q1495.4901544081213 384.6007310792182 1490.5255479648667 384.6007310792182L1490.5255479648667 384.6007310792182Q1481.8590095494744 384.6007310792182 1476.1769744294493 388.01569158064757Q1470.4949393094237 391.43065208207696 1465.9607900722317 399.4945504089817L1465.9607900722317 399.4945504089817L1465.9607900722317 475.3124129701285L1446.5328215052764 475.3124129701285L1446.5328215052764 369.10427166096713Z " fill="#243665" transform="matrix(0.5804367314043196,0,0,0.5804367314043197,0,65.36195468852304)"/></g></svg>